<svg width="284" height="178" viewBox="0 0 284 178" fill="none" xmlns="http://www.w3.org/2000/svg">
<g clip-path="url(#clip0_5_2)">
<path d="M117.422 186.782H28.959C25.4262 186.782 22.5521 183.9 22.5521 180.357V15.4252C22.5521 11.8823 25.4262 9 28.959 9H117.422C120.955 9 123.829 11.8823 123.829 15.4252V180.357C123.829 183.9 120.955 186.782 117.422 186.782ZM28.959 9.83076C25.8831 9.83076 23.3805 12.3405 23.3805 15.4252V180.357C23.3805 183.442 25.8831 185.951 28.959 185.951H117.422C120.498 185.951 123.001 183.442 123.001 180.357V15.4252C123.001 12.3405 120.498 9.83076 117.422 9.83076H28.959Z" fill="#3F3D56"/>
<path d="M276.074 92.8678C275.724 92.2764 274.211 92.9096 273.933 92.3729C273.656 91.8382 275.062 91.0234 275.865 89.1621C276.01 88.8265 276.922 86.7113 276.247 86.0586C274.966 84.8215 269.106 89.9268 267.055 88.2561C266.605 87.8895 266.291 87.1575 264.929 85.9691C264.387 85.4964 264.059 85.2829 263.742 85.3623C263.292 85.475 263.257 86.0789 262.774 87.2664C262.05 89.0472 261.622 88.9397 261.201 90.3605C260.888 91.4153 260.959 92.0285 260.591 92.148C260.07 92.317 259.59 91.1983 258.93 91.2985C258.256 91.4007 257.848 92.7033 257.72 93.6786C257.478 95.5088 258.148 96.7164 258.52 97.9863C258.923 99.3663 259.163 101.465 258.231 104.436L249.004 130.508C251.041 125.158 256.939 110.493 259.417 105.043C260.133 103.47 260.923 101.874 262.545 101.244C264.107 100.638 266.251 101 268.986 100.339C269.305 100.262 270.191 100.036 270.303 99.5133C270.395 99.0811 269.874 98.8399 269.954 98.4352C270.061 97.8922 271.086 97.8856 272.346 97.2592C273.234 96.8175 273.788 96.2923 274.263 95.8406C274.407 95.7044 276.539 93.655 276.074 92.8678Z" fill="#F2F2F2"/>
<path d="M239.772 106.593C239.382 106.595 239.255 107.522 238.912 107.504C238.57 107.486 238.577 106.559 237.898 105.627C237.776 105.459 237.004 104.399 236.489 104.543C235.514 104.817 236.322 109.174 234.913 109.701C234.604 109.817 234.155 109.761 233.18 110.088C232.792 110.219 232.593 110.318 232.541 110.497C232.466 110.751 232.751 110.943 233.193 111.523C233.856 112.393 233.68 112.573 234.253 113.19C234.679 113.649 235 113.79 234.952 114.006C234.885 114.311 234.199 114.225 234.057 114.579C233.913 114.94 234.433 115.516 234.873 115.861C235.699 116.508 236.483 116.527 237.212 116.71C238.004 116.91 239.1 117.397 240.285 118.714L250.383 130.778C248.352 128.231 242.877 121.097 240.925 118.304C240.361 117.498 239.808 116.649 239.968 115.669C240.122 114.725 240.918 113.774 241.383 112.238C241.438 112.058 241.583 111.557 241.359 111.351C241.174 111.181 240.906 111.368 240.731 111.212C240.496 111.002 240.789 110.496 240.846 109.695C240.886 109.13 240.788 108.706 240.704 108.342C240.679 108.232 240.291 106.591 239.772 106.593Z" fill="#F2F2F2"/>
<path d="M247.559 108.346L247.323 106.241L247.431 106.081C247.928 105.343 248.181 104.622 248.184 103.938C248.185 103.83 248.18 103.721 248.175 103.61C248.155 103.171 248.129 102.625 248.413 101.989C248.572 101.634 249.019 100.813 249.691 100.914C249.872 100.94 250.009 101.023 250.113 101.121C250.128 101.096 250.144 101.072 250.161 101.045C250.37 100.725 250.536 100.588 250.695 100.456C250.818 100.354 250.945 100.249 251.143 100.001C251.23 99.8926 251.298 99.7971 251.356 99.7168C251.529 99.4738 251.756 99.1841 252.157 99.1892C252.585 99.2095 252.809 99.5643 252.957 99.7991C253.222 100.218 253.342 100.52 253.422 100.72C253.451 100.793 253.484 100.876 253.5 100.901C253.638 101.104 254.759 100.914 255.181 100.845C256.129 100.686 256.95 100.549 257.288 101.149C257.53 101.578 257.35 102.145 256.737 102.88C256.546 103.109 256.343 103.283 256.162 103.419C256.312 103.508 256.445 103.646 256.5 103.861C256.627 104.371 256.19 104.883 255.2 105.383C254.954 105.508 254.624 105.675 254.16 105.755C253.941 105.792 253.745 105.802 253.576 105.807C253.573 105.904 253.55 106.01 253.491 106.119C253.317 106.439 252.955 106.591 252.41 106.555C251.81 106.523 251.316 106.409 250.88 106.308C250.499 106.22 250.171 106.146 249.914 106.164C249.436 106.202 249.068 106.585 248.637 107.082L247.559 108.346Z" fill="#F2F2F2"/>
<path d="M248.649 95.8115L246.679 96.5736L246.497 96.5099C245.659 96.2148 244.9 96.1518 244.239 96.3224C244.134 96.3495 244.031 96.382 243.925 96.415C243.507 96.546 242.987 96.7091 242.301 96.5952C241.918 96.5308 241.013 96.3055 240.94 95.6278C240.919 95.4458 240.965 95.292 241.032 95.1664C241.005 95.1579 240.977 95.1488 240.948 95.1393C240.586 95.0175 240.411 94.8915 240.243 94.7702C240.114 94.677 239.981 94.5806 239.691 94.4508C239.564 94.3938 239.455 94.3522 239.363 94.317C239.085 94.21 238.748 94.0632 238.651 93.6735C238.562 93.2534 238.847 92.9462 239.036 92.7425C239.373 92.3792 239.634 92.1861 239.807 92.0581C239.87 92.0115 239.941 91.9587 239.961 91.936C240.122 91.7507 239.655 90.7119 239.481 90.3199C239.088 89.4403 238.747 88.6791 239.24 88.1991C239.592 87.8553 240.185 87.8859 241.049 88.2944C241.318 88.4217 241.538 88.5748 241.715 88.7153C241.763 88.5475 241.862 88.3829 242.056 88.2757C242.515 88.0224 243.12 88.3169 243.853 89.1502C244.036 89.357 244.281 89.6357 244.476 90.0652C244.567 90.2676 244.626 90.456 244.674 90.6179C244.769 90.5966 244.877 90.5919 244.997 90.6219C245.349 90.7093 245.588 91.0216 245.691 91.5599C245.813 92.15 245.828 92.6585 245.841 93.1068C245.853 93.4982 245.865 93.8351 245.947 94.0805C246.105 94.5338 246.568 94.7935 247.157 95.0863L248.649 95.8115Z" fill="#F2F2F2"/>
<path d="M247.559 89.6095L247.323 87.5043L247.431 87.3447C247.928 86.6067 248.181 85.886 248.184 85.2019C248.185 85.0931 248.18 84.9843 248.175 84.8736C248.155 84.4344 248.129 83.8885 248.413 83.2522C248.572 82.8975 249.019 82.0761 249.691 82.1777C249.872 82.2032 250.009 82.2865 250.113 82.3841C250.128 82.3597 250.144 82.3353 250.161 82.3089C250.37 81.9887 250.536 81.8514 250.695 81.7193C250.818 81.6176 250.945 81.513 251.143 81.2649C251.23 81.1562 251.298 81.0606 251.356 80.9803C251.529 80.7374 251.756 80.4476 252.157 80.4527C252.585 80.4731 252.809 80.8278 252.957 81.0626C253.222 81.4814 253.342 81.7833 253.422 81.9836C253.451 82.0568 253.484 82.1391 253.5 82.1645C253.638 82.3678 254.759 82.1777 255.181 82.1086C256.129 81.95 256.95 81.8128 257.288 82.4126C257.53 82.8415 257.35 83.4087 256.737 84.1437C256.546 84.3724 256.343 84.5462 256.162 84.6825C256.312 84.7719 256.445 84.9091 256.5 85.1246C256.627 85.6349 256.19 86.1462 255.2 86.6464C254.954 86.7714 254.624 86.9381 254.16 87.0184C253.941 87.056 253.745 87.0652 253.576 87.0703C253.573 87.1679 253.55 87.2736 253.491 87.3823C253.317 87.7025 252.955 87.855 252.41 87.8184C251.81 87.7869 251.316 87.672 250.88 87.5714C250.499 87.484 250.171 87.4098 249.914 87.4271C249.436 87.4657 249.068 87.8489 248.637 88.346L247.559 89.6095Z" fill="#F2F2F2"/>
<path d="M249.706 130.474L249.267 130.197L248.754 130.256C248.746 130.208 248.718 130.098 248.676 129.927C248.446 128.985 247.746 126.121 247.162 121.61C246.755 118.46 246.524 115.223 246.477 111.985C246.429 108.742 246.582 106.288 246.705 104.314C246.797 102.826 246.91 101.409 247.02 100.029C247.314 96.3409 247.592 92.8573 247.385 89.0006C247.34 88.1396 247.244 86.3475 246.2 84.4405C245.594 83.3346 244.76 82.3526 243.72 81.5231L244.367 80.7079C245.515 81.6248 246.438 82.7125 247.11 83.9404C248.268 86.0548 248.372 88.0075 248.422 88.9458C248.632 92.8705 248.352 96.3877 248.055 100.111C247.945 101.487 247.833 102.897 247.741 104.38C247.619 106.334 247.467 108.768 247.515 111.969C247.561 115.168 247.789 118.366 248.191 121.475C248.768 125.93 249.458 128.752 249.684 129.679C249.805 130.174 249.83 130.277 249.706 130.474Z" fill="#F2F2F2"/>
<path d="M241.816 83.177C241.774 83.177 241.731 83.176 241.687 83.1729C240.803 83.1252 239.985 82.5945 239.254 81.5963C238.911 81.1267 238.736 80.591 238.386 79.5226C238.332 79.3579 238.069 78.5224 237.908 77.3727C237.804 76.6215 237.817 76.3074 237.965 76.0299C238.13 75.7208 238.396 75.5053 238.697 75.36C238.683 75.2604 238.694 75.1577 238.737 75.053C238.914 74.6189 239.384 74.6759 239.639 74.7033C239.767 74.7196 239.928 74.7409 240.101 74.7318C240.374 74.7186 240.521 74.6372 240.743 74.5152C240.955 74.3983 241.219 74.253 241.611 74.1727C242.383 74.0111 243.03 74.2306 243.244 74.3028C244.366 74.6779 244.92 75.5531 245.56 76.5666C245.688 76.7699 246.126 77.5099 246.416 78.5244C246.625 79.2563 246.595 79.5816 246.532 79.8235C246.405 80.3206 246.103 80.6052 245.337 81.2334C244.538 81.8911 244.136 82.2205 243.792 82.4207C242.989 82.8853 242.485 83.177 241.816 83.177Z" fill="#F2F2F2"/>
<path d="M124.076 82.3167H22.3054V108.826H124.076V82.3167Z" fill="#D9D9D9"/>
<path d="M87.0685 9.41538H60.6346V186.367H87.0685V9.41538Z" fill="#D9D9D9"/>
<path opacity="0.2" d="M88.0455 106.83C88.2327 106.1 88.3443 105.341 88.3714 104.559L121.433 74.3638L93.0161 60.4463L80.4921 93.9391C79.6361 93.7148 78.7427 93.5833 77.8166 93.5833C77.3249 93.5833 76.8449 93.6287 76.371 93.6938L63.9388 60.4463L35.5223 74.3638L67.2841 103.372C67.2636 103.642 67.243 103.912 67.243 104.187C67.243 105.101 67.3707 105.984 67.5877 106.83C48.1186 112.932 40.1483 131.359 40.1483 131.359L64.5996 151.242C63.1413 136.617 72.0471 121.644 76.8617 114.743C77.1767 114.771 77.4942 114.791 77.8166 114.791C78.139 114.791 78.4565 114.771 78.7715 114.743C83.5861 121.644 92.4919 136.617 91.0336 151.242L115.485 131.359C115.485 131.359 107.515 112.932 88.0455 106.83Z" fill="black"/>
<path d="M91.6357 144.077C91.3505 144.077 91.0631 144.015 90.7917 143.888C90.1053 143.567 89.6717 142.897 89.6598 142.14C89.4593 129.318 82.1693 116.734 77.8415 110.375C77.5525 109.95 77.0534 109.696 76.5061 109.696H76.5037C75.9364 109.696 75.4372 109.95 75.1482 110.375C70.8207 116.734 63.5306 129.318 63.33 142.14C63.3181 142.896 62.8844 143.567 62.198 143.888C61.5047 144.214 60.7051 144.115 60.1115 143.633L39.7881 127.107C39.0627 126.517 38.8497 125.483 39.2819 124.649C41.3363 120.681 49.2454 107.308 64.7673 101.81C65.46 101.564 65.8807 100.873 65.7901 100.127C65.7397 99.7112 65.7142 99.2934 65.7142 98.8853C65.7152 98.3985 65.5298 97.9564 65.2054 97.6603L35.9874 70.9746C35.5028 70.532 35.269 69.8794 35.3616 69.2287C35.4544 68.5781 35.8616 68.0171 36.4505 67.7286L60.7773 55.8145C61.2762 55.5699 61.8585 55.5482 62.3752 55.7538C62.8915 55.9599 63.2994 56.3775 63.4946 56.8992L74.7741 87.064C75.0069 87.6867 75.6039 88.0932 76.2816 88.0761C76.7927 88.0644 77.311 88.094 77.8278 88.1613C78.5571 88.2591 79.2453 87.8465 79.5005 87.1626L90.817 56.8992C91.0122 56.3775 91.4201 55.9599 91.9364 55.7538C92.4528 55.5484 93.0356 55.5701 93.5343 55.8145L117.861 67.7286C118.45 68.0171 118.857 68.5781 118.95 69.2291C119.043 69.8794 118.809 70.532 118.324 70.9746L87.713 98.9328C87.4276 99.1932 87.2501 99.5489 87.2128 99.9339C87.2048 100.017 87.1961 100.1 87.1861 100.183C87.1022 100.883 87.536 101.567 88.2176 101.808C103.743 107.306 111.653 120.681 113.708 124.649C114.14 125.483 113.927 126.517 113.202 127.107L92.8783 143.633C92.5171 143.926 92.0792 144.077 91.6357 144.077Z" fill="#D9D9D9"/>
<path d="M263.284 186.945H177.935C174.402 186.945 171.527 184.062 171.527 180.519V136.969C171.527 133.426 174.402 130.543 177.935 130.543H263.284C266.817 130.543 269.691 133.426 269.691 136.969V180.519C269.691 184.062 266.817 186.945 263.284 186.945ZM177.935 131.374C174.858 131.374 172.356 133.884 172.356 136.969V180.519C172.356 183.604 174.858 186.114 177.935 186.114H263.284C266.36 186.114 268.863 183.604 268.863 180.519V136.969C268.863 133.884 266.36 131.374 263.284 131.374H177.935Z" fill="#3F3D56"/>
<path d="M229.176 130.593H214.594V186.895H229.176V130.593Z" fill="#D9D9D9"/>
<path d="M269.277 151.798H171.942V166.422H269.277V151.798Z" fill="#D9D9D9"/>
<path opacity="0.2" d="M217.763 168.208C218.165 168.312 218.582 168.374 219.012 168.389L235.622 186.679L243.278 170.958L224.854 164.03C224.978 163.556 225.05 163.062 225.05 162.549C225.05 162.277 225.025 162.012 224.989 161.75L243.278 154.872L235.622 139.151L219.665 156.723C219.517 156.711 219.368 156.7 219.217 156.7C218.714 156.7 218.229 156.77 217.763 156.89C214.407 146.12 204.27 141.71 204.27 141.71L193.334 155.237C201.379 154.431 209.615 159.358 213.411 162.021C213.395 162.195 213.384 162.371 213.384 162.549C213.384 162.728 213.395 162.903 213.411 163.078C209.615 165.741 201.379 170.668 193.334 169.861L204.27 183.388C204.27 183.388 214.407 178.979 217.763 168.208Z" fill="black"/>
<path d="M236.221 184.164C235.891 184.164 235.573 184.025 235.347 183.776L219.967 166.84C219.841 166.701 219.656 166.612 219.448 166.591L219.381 166.584C219.005 166.543 218.663 166.746 218.545 167.081C215.509 175.712 208.119 180.105 205.926 181.246C205.432 181.504 204.818 181.374 204.467 180.938L195.376 169.693C195.087 169.337 195.029 168.856 195.223 168.439C195.415 168.028 195.813 167.769 196.263 167.762C203.291 167.654 210.197 163.63 213.688 161.242C213.898 161.098 214.023 160.85 214.023 160.578C214.023 160.294 213.898 160.046 213.688 159.902C210.198 157.514 203.293 153.491 196.263 153.382C195.813 153.375 195.415 153.115 195.223 152.704C195.029 152.287 195.087 151.807 195.376 151.451L204.467 140.206C204.819 139.771 205.433 139.642 205.926 139.898C208.118 141.039 215.507 145.431 218.544 154.06C218.661 154.394 218.998 154.602 219.336 154.561C219.704 154.515 220.071 154.504 220.426 154.531L235.347 138.099C235.611 137.808 236.001 137.667 236.389 137.724C236.777 137.78 237.112 138.024 237.284 138.377L243.838 151.836C243.984 152.136 243.997 152.486 243.874 152.796C243.751 153.105 243.502 153.35 243.191 153.467L226.597 159.707C226.292 159.822 226.093 160.121 226.101 160.451L226.103 160.572C226.103 160.831 226.085 161.094 226.049 161.354C226.004 161.689 226.212 162.023 226.544 162.148L243.191 168.409C243.502 168.526 243.751 168.77 243.874 169.08C243.997 169.39 243.984 169.739 243.838 170.039L237.284 183.498C237.112 183.852 236.777 184.096 236.389 184.152C236.333 184.16 236.277 184.164 236.221 184.164Z" fill="#D9D9D9"/>
<path d="M158.922 80.3157H145.574V75.9081C145.574 68.52 151.555 62.5219 158.922 62.5219L158.922 80.3157Z" fill="#2F2E41"/>
<path d="M155.963 72.0876L158.258 82.4397L144.81 80.2002L150.29 70.4097L155.963 72.0876Z" fill="#FFB6B6"/>
<path opacity="0.1" d="M155.963 72.0876L158.258 82.4397L144.81 80.2002L150.29 70.4097L155.963 72.0876Z" fill="black"/>
<path d="M155.963 94.2019H143.07V113.339H155.963V94.2019Z" fill="#FFB6B6"/>
<path d="M164.344 128.985L161.507 144.243C161.507 144.243 163.313 154.846 157.897 165.708L154.287 176.828L148.872 176.052C148.872 176.052 152.224 167.777 152.224 164.156C152.224 160.536 152.998 146.571 152.998 146.571L152.611 130.635L164.344 128.985Z" fill="#FFB6B6"/>
<path d="M148.098 175.794C148.098 175.794 154.287 173.466 154.803 176.828L154.545 178.38C154.545 178.38 156.866 185.362 153.513 185.879C150.161 186.397 147.067 187.172 146.809 185.621C146.551 184.069 146.555 182.132 147.198 180.773C147.84 179.414 148.098 175.794 148.098 175.794Z" fill="#2F2E41"/>
<path d="M144.823 126.618L143.316 142.065C143.316 142.065 138.642 151.747 140.832 163.69L141.216 175.379L146.632 176.144C146.632 176.144 145.707 167.26 146.711 163.782C147.715 160.304 150.845 146.675 150.845 146.675L155.636 131.476L144.823 126.618Z" fill="#FFB6B6"/>
<path d="M147.447 176.111C147.447 176.111 142.148 172.149 140.72 175.235L140.538 176.797C140.538 176.797 136.445 184.52 139.522 185.951C142.599 187.383 145.283 187.329 145.961 185.91C146.639 184.492 147.172 182.63 146.931 181.145C146.691 179.661 147.447 176.111 147.447 176.111Z" fill="#2F2E41"/>
<path d="M160.992 104.417L172.08 127.951C172.08 127.951 149.774 139.2 136.623 139.2L143.153 104.417L160.992 104.417Z" fill="#2F2E41"/>
<path d="M151.064 76.8749L157.51 77.9094L156.995 94.2019L164.215 108.684L154.932 113.339C154.932 113.339 147.711 99.6327 146.422 91.0985C145.133 82.5644 145.906 76.3577 145.906 76.3577L151.064 76.8749Z" fill="#E6E6E6"/>
<path d="M146.164 77.3922L139.717 78.4266L140.233 94.7191L138.686 109.719L142.296 113.856C142.296 113.856 149.516 100.15 150.806 91.6158C152.095 83.0816 151.322 76.8749 151.322 76.8749L146.164 77.3922Z" fill="#E6E6E6"/>
<path d="M156.092 78.2973L157.51 77.9094C157.51 77.9094 162.539 77.2629 163.313 79.3318C164.086 81.4006 163.828 93.5553 163.828 93.5553C163.828 93.5553 165.159 108.473 159.981 108.643C154.803 108.813 155.834 96.4001 155.834 96.4001L156.092 78.2973Z" fill="#E6E6E6"/>
<path d="M153.713 74.9286C157.399 74.9286 160.387 71.932 160.387 68.2355C160.387 64.539 157.399 61.5424 153.713 61.5424C150.027 61.5424 147.039 64.539 147.039 68.2355C147.039 71.932 150.027 74.9286 153.713 74.9286Z" fill="#FFB6B6"/>
<path d="M151.625 77.447C153.057 77.0827 154.68 78.6163 155.251 80.8732C155.492 81.7716 155.514 82.7148 155.316 83.6236L155.932 86.1892L155.977 86.1868L160.83 97.6559C161.958 100.323 161.839 103.384 160.4 105.896C159.543 107.39 158.42 108.394 157.1 107.369C154.911 105.668 153.48 95.9257 152.827 90.3296L151.318 84.6412C150.712 83.9366 150.283 83.0966 150.067 82.1917C149.496 79.9356 150.193 77.8113 151.625 77.447Z" fill="#FFB6B6"/>
<path d="M145.39 78.2973L143.972 77.9094C143.972 77.9094 138.944 77.2629 138.17 79.3318C137.396 81.4006 137.654 93.5553 137.654 93.5553C137.654 93.5553 136.324 108.473 141.502 108.643C146.68 108.813 145.648 96.4001 145.648 96.4001L145.39 78.2973Z" fill="#E6E6E6"/>
<path d="M149.858 77.447C148.426 77.0827 146.803 78.6163 146.232 80.8732C145.991 81.7716 145.969 82.7148 146.166 83.6236L145.551 86.1892L145.506 86.1868L140.653 97.6559C139.525 100.323 139.644 103.384 141.083 105.896C141.939 107.39 143.063 108.394 144.382 107.369C146.572 105.668 148.002 95.9257 148.655 90.3296L150.165 84.6412C150.771 83.9366 151.2 83.0966 151.416 82.1917C151.987 79.9356 151.289 77.8113 149.858 77.447Z" fill="#FFB6B6"/>
<path d="M140.936 73.6503C141.275 72.6151 141.945 71.7088 142.245 70.6614C142.643 69.2707 143.491 72.356 143.574 70.9114C143.731 68.1659 147.909 61.1033 150.295 59.7467C152.68 58.3901 154.05 58.7991 156.48 60.0732C156.48 60.0732 157.66 60.1484 159.128 60.8756C160.597 61.6027 161.919 62.7673 162.49 64.3067C162.943 65.5269 162.893 66.8669 163.044 68.16C163.466 71.7624 165.479 75.1885 165.047 78.7896C164.912 79.9132 164.486 81.075 163.57 81.7358C162.654 82.3967 161.175 82.3248 160.572 81.3682C160.366 81.0418 160.279 80.6546 160.102 80.3113C159.926 79.968 159.608 79.6479 159.223 79.6586C158.644 79.6747 158.35 80.4532 158.578 80.9867C158.806 81.5201 159.342 81.8422 159.845 82.1287C158.646 82.6696 157.159 82.5011 156.111 81.7057C155.062 80.9103 154.496 79.5209 154.689 78.2168C154.961 76.3791 157.631 76.7595 157.945 74.9286C158.174 73.5958 158.978 71.3657 158.759 70.0312C158.54 68.6967 157.488 70.3125 158.596 69.5415C157.377 70.1308 154.77 66.0994 153.494 65.6479C152.218 65.1963 151.136 64.2186 150.556 62.9927C149.202 64.9602 148.012 64.4259 147.527 66.7663C147.043 69.1066 147.491 74.4237 149.487 75.7303C148.688 76.2769 148.051 77.0584 147.676 77.9523C147.464 78.4587 147.326 79.0128 146.974 79.4334C146.301 80.2367 145.058 80.2856 144.068 79.9478C142.839 79.529 141.789 78.6092 141.21 77.445C140.631 76.2808 140.53 74.8862 140.936 73.6503Z" fill="#2F2E41"/>
</g>
<defs>
<clipPath id="clip0_5_2">
<rect width="284" height="178" fill="white"/>
</clipPath>
</defs>
</svg>
